<svg width="47" height="37" viewBox="0 0 47 37" fill="none" xmlns="http://www.w3.org/2000/svg">
<path d="M23.375 36.375C36.0779 36.375 46.375 28.3164 46.375 18.375C46.375 8.4336 36.0779 0.375 23.375 0.375C10.6721 0.375 0.375 8.4336 0.375 18.375C0.375 28.3164 10.6721 36.375 23.375 36.375Z" stroke="white" stroke-width="0.75" stroke-linecap="round" stroke-linejoin="round"/>
<path d="M28.741 30.975V27.6216C28.7985 27.0636 28.6996 26.5056 28.4512 25.9782C28.1999 25.451 27.8078 24.9717 27.3012 24.5724C32.1151 24.1638 37.1751 22.7724 37.1751 16.3932C37.1707 14.7535 36.3449 13.1805 34.8751 12.012C35.5774 10.587 35.5278 9.00197 34.7371 7.60558C34.7371 7.60558 32.927 7.19698 28.741 9.33538C25.2239 8.60956 21.5264 8.60956 18.0092 9.33538C13.8232 7.19698 12.0131 7.60738 12.0131 7.60738C11.2237 9.00273 11.1741 10.5862 11.8751 12.0102C10.3947 13.1871 9.56804 14.774 9.57512 16.4256C9.57512 22.7598 14.6351 24.1494 19.449 24.6048C18.9479 25.0006 18.5592 25.4747 18.3082 25.9962C18.0579 26.5137 17.9558 27.068 18.0092 27.6198V30.975" stroke="white" stroke-width="0.75" stroke-linecap="round" stroke-linejoin="round"/>
<path d="M18.0091 28.6386C13.4091 29.7744 9.57502 28.6386 7.27502 25.1322" stroke="white" stroke-width="0.75" stroke-linecap="round" stroke-linejoin="round"/>
</svg>
