<svg width="20" height="20" viewBox="0 0 20 20" fill="none" xmlns="http://www.w3.org/2000/svg">
<path d="M12.6541 16.8429L9.73686 13.1576L8.00526 15.8312C7.48403 16.636 7.22341 17.0384 6.92407 16.9723C6.62475 16.9061 6.51046 16.4208 6.2819 15.4504L6.28188 15.4503L5.84227 13.5837C5.60738 12.5864 5.48992 12.0877 5.2147 11.7077C5.18376 11.665 5.15147 11.6236 5.11788 11.5837C4.81917 11.2283 4.40254 11.0427 3.5693 10.6716C1.73029 9.85259 0.810787 9.44298 0.754267 8.74478C0.74848 8.67338 0.748579 8.60148 0.754564 8.53008C0.81301 7.83218 1.73364 7.42602 3.57489 6.61377L14.2555 1.90209C16.5576 0.886516 17.7087 0.378735 18.3727 1.06127C19.0368 1.74381 18.7381 3.12759 18.1406 5.89518L15.9886 15.8631C15.6007 17.6601 15.4067 18.5585 14.841 18.7247C14.2754 18.8909 13.7349 18.2082 12.6541 16.8429Z" fill="white"/>
<path d="M9.73686 13.1576L12.6541 16.8429C13.7349 18.2082 14.2754 18.8909 14.841 18.7247C15.4067 18.5585 15.6007 17.6601 15.9886 15.8631L18.1406 5.89518C18.7381 3.12759 19.0368 1.74381 18.3727 1.06127C17.7087 0.378735 16.5576 0.886516 14.2555 1.90209L3.57489 6.61377C1.73364 7.42602 0.81301 7.83218 0.754564 8.53008C0.748579 8.60148 0.74848 8.67338 0.754267 8.74478C0.810787 9.44298 1.73029 9.85259 3.5693 10.6716C4.40254 11.0427 4.81917 11.2283 5.11788 11.5837C5.15147 11.6236 5.18376 11.665 5.2147 11.7077C5.48992 12.0877 5.60738 12.5864 5.84227 13.5837L6.28188 15.4503C6.51045 16.4208 6.62474 16.9061 6.92407 16.9723C7.22341 17.0384 7.48403 16.636 8.00526 15.8312L9.73686 13.1576ZM9.73686 13.1576L9.45084 12.8264C9.12531 12.4494 8.96259 12.261 8.96259 12.0268C8.96259 11.7926 9.12531 11.6041 9.45084 11.2271L12.6665 7.50337" stroke="white" stroke-width="1.5" stroke-linecap="round" stroke-linejoin="round"/>
</svg>
