<svg width="20" height="14" viewBox="0 0 20 14" fill="none" xmlns="http://www.w3.org/2000/svg">
<path fill-rule="evenodd" clip-rule="evenodd" d="M9.78521 13.9414H10.9807C10.9807 13.9414 11.3418 13.8927 11.5262 13.6489C11.6959 13.425 11.6904 13.0046 11.6904 13.0046C11.6904 13.0046 11.6671 11.0363 12.4116 10.7464C13.1455 10.4609 14.0879 12.6487 15.0868 13.49C15.8421 14.1266 16.4161 13.987 16.4161 13.987L19.087 13.9414C19.087 13.9414 20.4842 13.8358 19.8217 12.4878C19.7674 12.3776 19.4359 11.4907 17.8359 9.66834C16.1612 7.76103 16.3854 8.06953 18.4028 4.7703C19.6314 2.76104 20.1226 1.53436 19.9692 1.00898C19.8228 0.508577 18.9192 0.64084 18.9192 0.64084L15.9119 0.663828C15.9119 0.663828 15.689 0.626514 15.5237 0.747782C15.3621 0.866719 15.2581 1.1439 15.2581 1.1439C15.2581 1.1439 14.7822 2.69874 14.1474 4.02103C12.8082 6.8112 12.2728 6.95846 12.054 6.78522C11.5449 6.38143 11.672 5.16309 11.672 4.29755C11.672 1.59366 12.0062 0.466267 11.0211 0.174424C10.6942 0.0774756 10.4537 0.0135099 9.61769 0.00318205C8.54467 -0.0104773 7.63645 0.00717948 7.12221 0.316347C6.7801 0.521904 6.51619 0.979992 6.67692 1.00631C6.87567 1.03896 7.32584 1.15523 7.5645 1.55402C7.87267 2.06841 7.86181 3.22379 7.86181 3.22379C7.86181 3.22379 8.03884 6.40675 7.44829 6.80221C7.04292 7.0734 6.48686 6.51969 5.29302 3.98838C4.6813 2.69174 4.21945 1.25851 4.21945 1.25851C4.21945 1.25851 4.1304 0.990652 3.97156 0.847396C3.77878 0.673822 3.50944 0.618519 3.50944 0.618519L0.65176 0.641506C0.65176 0.641506 0.222768 0.656166 0.0652904 0.885043C-0.0748108 1.0886 0.0541582 1.50971 0.0541582 1.50971C0.0541582 1.50971 2.29143 7.93227 4.82466 11.1689C7.14746 14.1363 9.78521 13.9414 9.78521 13.9414Z" fill="white"/>
</svg>
