<svg width="18" height="14" viewBox="0 0 18 14" fill="none" xmlns="http://www.w3.org/2000/svg">
<path fill-rule="evenodd" clip-rule="evenodd" d="M8.95833 0C7.96583 0 6.80833 0.0233333 5.68 0.055L5.63417 0.0566665C4.48583 0.0891665 3.55917 0.115 2.82917 0.235833C2.06833 0.361667 1.43667 0.6025 0.931667 1.12167C0.425 1.6425 0.204167 2.28667 0.1 3.0575C6.20882e-09 3.79917 0 4.73917 0 5.9075V7.1775C0 8.34417 6.20882e-09 9.28417 0.1 10.0267C0.203333 10.7975 0.425 11.4417 0.931667 11.9625C1.43667 12.4825 2.06833 12.7225 2.82917 12.8483C3.55917 12.9692 4.48583 12.995 5.63417 13.0275L5.68 13.0292C6.80917 13.0608 7.96583 13.0842 8.95833 13.0842C9.95083 13.0842 11.1083 13.0608 12.2367 13.0292L12.2825 13.0275C13.4308 12.995 14.3575 12.9692 15.0875 12.8483C15.8483 12.7225 16.48 12.4817 16.985 11.9625C17.4917 11.4417 17.7133 10.7975 17.8167 10.0267C17.9167 9.285 17.9167 8.345 17.9167 7.17667V5.90667C17.9167 4.73917 17.9167 3.79917 17.8167 3.0575C17.7133 2.28667 17.4917 1.6425 16.985 1.12167C16.48 0.601666 15.8483 0.361667 15.0875 0.235833C14.3575 0.115 13.4308 0.0891665 12.2817 0.0566665L12.2367 0.055C11.1442 0.0218406 10.0513 0.00350563 8.95833 0ZM8.01833 8.75083C7.9233 8.80512 7.81567 8.8335 7.70622 8.83313C7.59677 8.83276 7.48934 8.80365 7.39467 8.74872C7.30001 8.6938 7.22142 8.61497 7.16678 8.52014C7.11215 8.4253 7.08337 8.31778 7.08333 8.20833V4.875C7.08337 4.76555 7.11215 4.65803 7.16678 4.56319C7.22142 4.46836 7.30001 4.38953 7.39467 4.33461C7.48934 4.27968 7.59677 4.25057 7.70622 4.25021C7.81567 4.24984 7.9233 4.27821 8.01833 4.3325L10.935 5.99917C11.0306 6.05385 11.11 6.13283 11.1653 6.22809C11.2205 6.32336 11.2496 6.43154 11.2496 6.54167C11.2496 6.6518 11.2205 6.75997 11.1653 6.85524C11.11 6.9505 11.0306 7.02948 10.935 7.08417L8.01833 8.75083Z" fill="white"/>
</svg>
